<?xml version="1.0" standalone="no"?>
<!DOCTYPE svg PUBLIC "-//W3C//DTD SVG 20010904//EN"
 "http://www.w3.org/TR/2001/REC-SVG-20010904/DTD/svg10.dtd">
<svg version="1.0" xmlns="http://www.w3.org/2000/svg"
 width="2362.000000pt" height="2362.000000pt" viewBox="0 0 2362.000000 2362.000000"
 preserveAspectRatio="xMidYMid meet">
<metadata>
Created by potrace 1.11, written by Peter Selinger 2001-2013
</metadata>
<g transform="translate(0.000000,2362.000000) scale(0.100000,-0.100000)"
fill="#000000" stroke="none">
<path d="M11390 22634 c-1551 -65 -2990 -433 -4347 -1112 -3155 -1577 -5360
-4628 -5883 -8139 -126 -845 -155 -1733 -85 -2578 196 -2348 1125 -4546 2669
-6314 500 -573 1081 -1110 1696 -1568 1572 -1169 3424 -1881 5355 -2057 611
-56 1261 -60 1860 -10 2859 235 5486 1613 7347 3852 1265 1521 2095 3374 2397
5352 42 272 68 511 102 915 17 204 23 1057 10 1311 -101 1908 -661 3694 -1657
5287 -1206 1929 -2990 3435 -5073 4284 -1050 428 -2120 675 -3281 758 -202 15
-919 27 -1110 19z m1188 -986 c1678 -1673 3108 -3387 4062 -4868 746 -1158
1331 -2129 1785 -2965 54 -99 108 -190 121 -201 112 -105 411 -966 599 -1724
489 -1973 521 -3841 90 -5305 -226 -766 -574 -1432 -1038 -1985 -319 -379
-671 -689 -1117 -983 -341 -224 -1020 -534 -1635 -746 -708 -245 -1559 -427
-2175 -466 -76 -5 -125 -16 -245 -55 -1000 -326 -2229 -354 -3305 -74 -655
170 -1186 402 -1850 808 -546 335 -797 516 -1137 820 -1218 1093 -1935 2647
-2043 4431 -16 267 -6 1416 14 1655 92 1062 350 1985 854 3045 470 990 1136
2037 2192 3445 130 173 296 403 370 510 452 659 644 904 1641 2096 996 1191
920 1100 1797 2172 343 419 629 762 635 762 6 0 180 -168 385 -372z"/>
<path d="M11715 21394 c-258 -316 -475 -583 -482 -592 -11 -15 3 -29 119 -117
300 -227 854 -671 1268 -1014 1135 -941 2135 -1873 2790 -2600 247 -274 851
-1003 964 -1165 16 -22 96 -131 176 -241 694 -946 1330 -1996 1510 -2490 23
-66 46 -124 50 -128 15 -17 265 326 354 486 l38 67 -137 252 c-588 1078 -1674
2834 -2259 3653 -746 1043 -1654 2131 -2750 3295 -280 298 -1146 1170 -1160
1170 -6 0 -222 -259 -481 -576z"/>
<path d="M10059 19382 c-628 -752 -1150 -1376 -1160 -1387 -21 -24 -71 -259
-158 -751 -79 -441 -243 -1439 -275 -1669 -131 -942 -152 -1938 -56 -2690 41
-318 166 -710 304 -953 106 -187 247 -346 373 -421 115 -68 207 -94 338 -94
122 -1 202 15 324 64 275 110 668 420 1911 1509 1243 1089 1842 1561 2517
1983 744 465 1620 800 1780 681 34 -26 42 -76 18 -119 -20 -37 -47 -55 -381
-251 -592 -347 -890 -560 -1374 -983 -188 -163 -777 -750 -993 -989 -711 -784
-1070 -1244 -1391 -1782 -121 -202 -328 -620 -414 -835 -482 -1210 -700 -2523
-577 -3471 17 -129 82 -409 140 -599 80 -265 172 -430 233 -423 35 4 64 49 98
151 86 260 281 694 404 897 571 947 1532 1943 2760 2861 300 224 450 330 910
639 467 314 643 438 950 669 544 409 992 794 1376 1183 189 191 364 385 364
403 0 24 -90 257 -143 370 -287 610 -860 1522 -1480 2354 -368 495 -731 938
-1109 1356 -785 868 -2033 1998 -3463 3136 -257 205 -647 508 -672 522 -7 4
-447 -515 -1154 -1361z m206 -3776 c346 -93 607 -419 705 -881 30 -142 38
-418 16 -580 -43 -329 -170 -641 -351 -865 -170 -211 -377 -351 -591 -401
-123 -28 -302 -23 -404 11 -171 58 -318 165 -432 315 -374 492 -365 1320 20
1900 185 278 420 452 692 510 81 18 262 13 345 -9z"/>
<path d="M7895 16617 c-2122 -2806 -2971 -4579 -3151 -6577 -22 -244 -26 -865
-6 -1070 138 -1437 697 -2832 1571 -3925 440 -550 978 -1045 1569 -1443 182
-123 368 -228 702 -396 248 -126 600 -285 600 -272 0 2 -64 59 -142 126 -1266
1085 -2135 2341 -2596 3750 -334 1021 -449 2108 -346 3270 95 1079 401 2237
867 3285 77 173 232 489 307 625 23 43 109 356 379 1388 193 733 353 1341 356
1352 13 42 -13 14 -110 -113z"/>
<path d="M7361 14134 c0 -11 3 -14 6 -6 3 7 2 16 -1 19 -3 4 -6 -2 -5 -13z"/>
<path d="M7341 14067 c-6 -25 -27 -73 -47 -108 -63 -112 -204 -398 -289 -589
-703 -1572 -1017 -3298 -879 -4825 140 -1553 702 -2943 1688 -4175 378 -473
842 -943 1341 -1360 77 -65 154 -124 170 -133 48 -24 369 -132 543 -182 466
-133 885 -195 1319 -195 217 0 454 14 481 29 10 5 2 16 -25 37 -21 16 -117 96
-213 179 -2563 2194 -3990 4975 -4220 8220 -67 949 -23 1995 126 2968 25 166
27 220 5 134z"/>
<path d="M18520 13561 c0 -18 -164 -268 -258 -394 -540 -717 -1515 -1555
-2837 -2437 -1087 -726 -1835 -1333 -2560 -2081 -525 -541 -996 -1168 -1231
-1639 -247 -495 -386 -934 -456 -1440 -20 -149 -17 -634 5 -785 83 -555 282
-1019 633 -1475 115 -150 420 -454 546 -545 53 -38 97 -72 97 -75 2 -10 -239
-88 -379 -124 -314 -80 -604 -111 -965 -103 -481 11 -891 82 -1414 244 -587
182 -1324 524 -1786 828 -1434 946 -2459 2357 -2950 4060 -102 356 -168 658
-220 1016 -13 95 -27 175 -31 178 -10 9 5 -396 22 -607 91 -1147 451 -2225
1040 -3115 489 -738 1122 -1344 1909 -1827 66 -40 183 -112 260 -160 862 -533
1727 -830 2720 -935 205 -22 753 -31 970 -16 512 36 972 121 1385 256 122 40
152 46 315 60 849 75 1746 299 2625 658 490 199 875 393 1153 579 1309 877
2090 2238 2316 4033 183 1451 -2 3194 -516 4875 -107 349 -246 726 -335 903
-33 67 -58 96 -58 68z"/>
<path d="M4819 21113 c-13 -16 -12 -17 4 -4 9 7 17 15 17 17 0 8 -8 3 -21 -13z"/>
<path d="M4779 21083 c-13 -16 -12 -17 4 -4 9 7 17 15 17 17 0 8 -8 3 -21 -13z"/>
<path d="M4689 21013 c-13 -16 -12 -17 4 -4 9 7 17 15 17 17 0 8 -8 3 -21 -13z"/>
<path d="M4639 20973 c-13 -16 -12 -17 4 -4 9 7 17 15 17 17 0 8 -8 3 -21 -13z"/>
<path d="M4589 20933 c-13 -16 -12 -17 4 -4 9 7 17 15 17 17 0 8 -8 3 -21 -13z"/>
<path d="M4539 20893 l-24 -28 28 24 c15 14 27 26 27 28 0 8 -8 1 -31 -24z"/>
<path d="M4484 20848 l-19 -23 23 19 c12 11 22 21 22 23 0 8 -8 2 -26 -19z"/>
<path d="M4429 20803 l-24 -28 28 24 c15 14 27 26 27 28 0 8 -8 1 -31 -24z"/>
<path d="M4245 20648 c-1166 -1018 -2079 -2187 -2765 -3543 -123 -244 -304
-634 -297 -641 2 -2 34 65 72 149 421 936 1006 1872 1669 2672 377 454 865
956 1296 1330 143 125 188 165 180 165 -3 0 -72 -60 -155 -132z"/>
<path d="M1162 16425 c-17 -37 -14 -45 4 -12 9 16 14 31 11 33 -2 2 -9 -7 -15
-21z"/>
<path d="M1121 16329 c-12 -29 -20 -54 -18 -56 2 -2 14 20 26 48 12 29 20 54
18 56 -2 2 -14 -20 -26 -48z"/>
<path d="M1086 16245 c-9 -26 -7 -32 5 -12 6 10 9 21 6 23 -2 3 -7 -2 -11 -11z"/>
<path d="M1066 16195 c-9 -26 -7 -32 5 -12 6 10 9 21 6 23 -2 3 -7 -2 -11 -11z"/>
<path d="M1046 16145 c-9 -26 -7 -32 5 -12 6 10 9 21 6 23 -2 3 -7 -2 -11 -11z"/>
<path d="M1026 16095 c-9 -26 -7 -32 5 -12 6 10 9 21 6 23 -2 3 -7 -2 -11 -11z"/>
<path d="M1006 16045 c-9 -26 -7 -32 5 -12 6 10 9 21 6 23 -2 3 -7 -2 -11 -11z"/>
<path d="M976 15965 c-9 -26 -7 -32 5 -12 6 10 9 21 6 23 -2 3 -7 -2 -11 -11z"/>
</g>
</svg>
